<?xml version="1.0" encoding="UTF-8" standalone="no"?>
<svg 
   width="165.119995pt"
   height="94.079994pt"
   viewBox="0 0 165.119995 94.079994"
   version="1.1"
   id="svg44"
   xmlns="http://www.w3.org/2000/svg"
   xmlns:svg="http://www.w3.org/2000/svg" content="%3Cmxfile%20host%3D%22app.diagrams.net%22%20modified%3D%222023-06-08T10%3A01%3A08.078Z%22%20agent%3D%22Mozilla%2F5.0%20(Windows%20NT%2010.0%3B%20Win64%3B%20x64)%20AppleWebKit%2F537.36%20(KHTML%2C%20like%20Gecko)%20Chrome%2F114.0.0.0%20Safari%2F537.36%22%20version%3D%2221.3.7%22%20etag%3D%22wQwMI025SmeH9fXEoRBn%22%20type%3D%22device%22%3E%20%20%20%3Cdiagram%20name%3D%22Seite-1%22%20id%3D%224cL_pPIbyWbpnsbUGktJ%22%3E%20%20%20%20%20%3CmxGraphModel%20dx%3D%22478%22%20dy%3D%22253%22%20grid%3D%221%22%20gridSize%3D%2210%22%20guides%3D%221%22%20tooltips%3D%221%22%20connect%3D%221%22%20arrows%3D%221%22%20fold%3D%221%22%20page%3D%221%22%20pageScale%3D%221%22%20pageWidth%3D%22827%22%20pageHeight%3D%221169%22%20background%3D%22none%22%20math%3D%220%22%20shadow%3D%220%22%3E%20%20%20%20%20%20%20%3Croot%3E%20%20%20%20%20%20%20%20%20%3CmxCell%20id%3D%220%22%20%2F%3E%20%20%20%20%20%20%20%20%20%3CmxCell%20id%3D%221%22%20parent%3D%220%22%20%2F%3E%20%20%20%20%20%20%20%20%20%3CmxCell%20id%3D%222%22%20value%3D%22%22%20style%3D%22rounded%3D0%3BwhiteSpace%3Dwrap%3Bhtml%3D1%3Bdashed%3D1%3B%22%20vertex%3D%221%22%20parent%3D%221%22%3E%20%20%20%20%20%20%20%20%20%20%20%3CmxGeometry%20x%3D%22552.5%22%20y%3D%22770%22%20width%3D%22157.5%22%20height%3D%2260%22%20as%3D%22geometry%22%20%2F%3E%20%20%20%20%20%20%20%20%20%3C%2FmxCell%3E%20%20%20%20%20%20%20%20%20%3CmxCell%20id%3D%223%22%20value%3D%22%22%20style%3D%22rounded%3D0%3BwhiteSpace%3Dwrap%3Bhtml%3D1%3Bdashed%3D1%3B%22%20vertex%3D%221%22%20parent%3D%221%22%3E%20%20%20%20%20%20%20%20%20%20%20%3CmxGeometry%20x%3D%22552.5%22%20y%3D%22830%22%20width%3D%22157.5%22%20height%3D%2260%22%20as%3D%22geometry%22%20%2F%3E%20%20%20%20%20%20%20%20%20%3C%2FmxCell%3E%20%20%20%20%20%20%20%20%20%3CmxCell%20id%3D%224%22%20value%3D%22%22%20style%3D%22curved%3D1%3BendArrow%3Dclassic%3Bhtml%3D1%3Brounded%3D0%3B%22%20edge%3D%221%22%20parent%3D%221%22%3E%20%20%20%20%20%20%20%20%20%20%20%3CmxGeometry%20width%3D%2250%22%20height%3D%2250%22%20relative%3D%221%22%20as%3D%22geometry%22%3E%20%20%20%20%20%20%20%20%20%20%20%20%20%3CmxPoint%20x%3D%22563.92%22%20y%3D%22826.06%22%20as%3D%22sourcePoint%22%20%2F%3E%20%20%20%20%20%20%20%20%20%20%20%20%20%3CmxPoint%20x%3D%22633.42%22%20y%3D%22827.89%22%20as%3D%22targetPoint%22%20%2F%3E%20%20%20%20%20%20%20%20%20%20%20%20%20%3CArray%20as%3D%22points%22%3E%20%20%20%20%20%20%20%20%20%20%20%20%20%20%20%3CmxPoint%20x%3D%22563.42%22%20y%3D%22857.06%22%20%2F%3E%20%20%20%20%20%20%20%20%20%20%20%20%20%20%20%3CmxPoint%20x%3D%22593.42%22%20y%3D%22877.06%22%20%2F%3E%20%20%20%20%20%20%20%20%20%20%20%20%20%20%20%3CmxPoint%20x%3D%22623.42%22%20y%3D%22867.06%22%20%2F%3E%20%20%20%20%20%20%20%20%20%20%20%20%20%20%20%3CmxPoint%20x%3D%22633.42%22%20y%3D%22847.06%22%20%2F%3E%20%20%20%20%20%20%20%20%20%20%20%20%20%3C%2FArray%3E%20%20%20%20%20%20%20%20%20%20%20%3C%2FmxGeometry%3E%20%20%20%20%20%20%20%20%20%3C%2FmxCell%3E%20%20%20%20%20%20%20%20%20%3CmxCell%20id%3D%225%22%20value%3D%22%22%20style%3D%22curved%3D1%3BendArrow%3Dclassic%3Bhtml%3D1%3Brounded%3D0%3B%22%20edge%3D%221%22%20parent%3D%221%22%3E%20%20%20%20%20%20%20%20%20%20%20%3CmxGeometry%20width%3D%2250%22%20height%3D%2250%22%20relative%3D%221%22%20as%3D%22geometry%22%3E%20%20%20%20%20%20%20%20%20%20%20%20%20%3CmxPoint%20x%3D%22634.42%22%20y%3D%22833.89%22%20as%3D%22sourcePoint%22%20%2F%3E%20%20%20%20%20%20%20%20%20%20%20%20%20%3CmxPoint%20x%3D%22702.17%22%20y%3D%22833.89%22%20as%3D%22targetPoint%22%20%2F%3E%20%20%20%20%20%20%20%20%20%20%20%20%20%3CArray%20as%3D%22points%22%3E%20%20%20%20%20%20%20%20%20%20%20%20%20%20%20%3CmxPoint%20x%3D%22631.92%22%20y%3D%22813.89%22%20%2F%3E%20%20%20%20%20%20%20%20%20%20%20%20%20%20%20%3CmxPoint%20x%3D%22651.92%22%20y%3D%22793.89%22%20%2F%3E%20%20%20%20%20%20%20%20%20%20%20%20%20%20%20%3CmxPoint%20x%3D%22690.67%22%20y%3D%22794.89%22%20%2F%3E%20%20%20%20%20%20%20%20%20%20%20%20%20%20%20%3CmxPoint%20x%3D%22701.92%22%20y%3D%22813.89%22%20%2F%3E%20%20%20%20%20%20%20%20%20%20%20%20%20%3C%2FArray%3E%20%20%20%20%20%20%20%20%20%20%20%3C%2FmxGeometry%3E%20%20%20%20%20%20%20%20%20%3C%2FmxCell%3E%20%20%20%20%20%20%20%20%20%3CmxCell%20id%3D%226%22%20value%3D%22%22%20style%3D%22endArrow%3Dclassic%3Bhtml%3D1%3Brounded%3D0%3B%22%20edge%3D%221%22%20parent%3D%221%22%3E%20%20%20%20%20%20%20%20%20%20%20%3CmxGeometry%20width%3D%2250%22%20height%3D%2250%22%20relative%3D%221%22%20as%3D%22geometry%22%3E%20%20%20%20%20%20%20%20%20%20%20%20%20%3CmxPoint%20x%3D%22564.17%22%20y%3D%22786.89%22%20as%3D%22sourcePoint%22%20%2F%3E%20%20%20%20%20%20%20%20%20%20%20%20%20%3CmxPoint%20x%3D%22564.17%22%20y%3D%22826.89%22%20as%3D%22targetPoint%22%20%2F%3E%20%20%20%20%20%20%20%20%20%20%20%3C%2FmxGeometry%3E%20%20%20%20%20%20%20%20%20%3C%2FmxCell%3E%20%20%20%20%20%20%20%20%20%3CmxCell%20id%3D%227%22%20value%3D%22%22%20style%3D%22endArrow%3Dclassic%3Bhtml%3D1%3Brounded%3D0%3B%22%20edge%3D%221%22%20parent%3D%221%22%3E%20%20%20%20%20%20%20%20%20%20%20%3CmxGeometry%20width%3D%2250%22%20height%3D%2250%22%20relative%3D%221%22%20as%3D%22geometry%22%3E%20%20%20%20%20%20%20%20%20%20%20%20%20%3CmxPoint%20x%3D%22702.17%22%20y%3D%22832.9499999999999%22%20as%3D%22sourcePoint%22%20%2F%3E%20%20%20%20%20%20%20%20%20%20%20%20%20%3CmxPoint%20x%3D%22702.17%22%20y%3D%22872.9499999999999%22%20as%3D%22targetPoint%22%20%2F%3E%20%20%20%20%20%20%20%20%20%20%20%3C%2FmxGeometry%3E%20%20%20%20%20%20%20%20%20%3C%2FmxCell%3E%20%20%20%20%20%20%20%20%20%3CmxCell%20id%3D%228%22%20value%3D%22%22%20style%3D%22endArrow%3Dclassic%3Bhtml%3D1%3Brounded%3D0%3B%22%20edge%3D%221%22%20parent%3D%221%22%3E%20%20%20%20%20%20%20%20%20%20%20%3CmxGeometry%20width%3D%2250%22%20height%3D%2250%22%20relative%3D%221%22%20as%3D%22geometry%22%3E%20%20%20%20%20%20%20%20%20%20%20%20%20%3CmxPoint%20x%3D%22762.5%22%20y%3D%22787.06%22%20as%3D%22sourcePoint%22%20%2F%3E%20%20%20%20%20%20%20%20%20%20%20%20%20%3CmxPoint%20x%3D%22761.25%22%20y%3D%22867.06%22%20as%3D%22targetPoint%22%20%2F%3E%20%20%20%20%20%20%20%20%20%20%20%3C%2FmxGeometry%3E%20%20%20%20%20%20%20%20%20%3C%2FmxCell%3E%20%20%20%20%20%20%20%3C%2Froot%3E%20%20%20%20%20%3C%2FmxGraphModel%3E%20%20%20%3C%2Fdiagram%3E%20%3C%2Fmxfile%3E%20">
  <defs
     id="defs8">
    <clipPath
       id="clip-0">
      <path
         clip-rule="nonzero"
         d="M 146 3 L 165 3 L 165 80 L 146 80 Z M 146 3 "
         id="path2" />
    </clipPath>
    <clipPath
       id="clip-1">
      <path
         clip-rule="nonzero"
         d="M 144 57 L 165 57 L 165 84 L 144 84 Z M 144 57 "
         id="path5" />
    </clipPath>
  </defs>
  <path
     fill-rule="nonzero"
     fill="rgb(100%, 100%, 100%)"
     fill-opacity="1"
     d="M 0.75 1.125 L 118.875 1.125 L 118.875 46.125 L 0.75 46.125 Z M 0.75 1.125 "
     id="path10" />
  <path
     fill-rule="nonzero"
     fill="rgb(0%, 0%, 0%)"
     fill-opacity="1"
     d="M 5.25 0.75 L 7.5 0.75 L 7.5 1.5 L 5.25 1.5 Z M 9.75 0.75 L 12 0.75 L 12 1.5 L 9.75 1.5 Z M 14.25 0.75 L 16.5 0.75 L 16.5 1.5 L 14.25 1.5 Z M 18.75 0.75 L 21 0.75 L 21 1.5 L 18.75 1.5 Z M 23.25 0.75 L 25.5 0.75 L 25.5 1.5 L 23.25 1.5 Z M 27.75 0.75 L 30 0.75 L 30 1.5 L 27.75 1.5 Z M 32.25 0.75 L 34.5 0.75 L 34.5 1.5 L 32.25 1.5 Z M 36.75 0.75 L 39 0.75 L 39 1.5 L 36.75 1.5 Z M 41.25 0.75 L 43.5 0.75 L 43.5 1.5 L 41.25 1.5 Z M 45.75 0.75 L 48 0.75 L 48 1.5 L 45.75 1.5 Z M 50.25 0.75 L 52.5 0.75 L 52.5 1.5 L 50.25 1.5 Z M 54.75 0.75 L 57 0.75 L 57 1.5 L 54.75 1.5 Z M 59.25 0.75 L 61.5 0.75 L 61.5 1.5 L 59.25 1.5 Z M 63.75 0.75 L 66 0.75 L 66 1.5 L 63.75 1.5 Z M 68.25 0.75 L 70.5 0.75 L 70.5 1.5 L 68.25 1.5 Z M 72.75 0.75 L 75 0.75 L 75 1.5 L 72.75 1.5 Z M 77.25 0.75 L 79.5 0.75 L 79.5 1.5 L 77.25 1.5 Z M 81.75 0.75 L 84 0.75 L 84 1.5 L 81.75 1.5 Z M 86.25 0.75 L 88.5 0.75 L 88.5 1.5 L 86.25 1.5 Z M 90.75 0.75 L 93 0.75 L 93 1.5 L 90.75 1.5 Z M 95.25 0.75 L 97.5 0.75 L 97.5 1.5 L 95.25 1.5 Z M 99.75 0.75 L 102 0.75 L 102 1.5 L 99.75 1.5 Z M 104.25 0.75 L 106.5 0.75 L 106.5 1.5 L 104.25 1.5 Z M 108.75 0.75 L 111 0.75 L 111 1.5 L 108.75 1.5 Z M 113.25 0.75 L 115.5 0.75 L 115.5 1.5 L 113.25 1.5 Z M 117.75 0.75 L 119.25 0.75 L 119.25 2.25 L 118.5 2.25 L 118.5 1.125 L 118.875 1.125 L 118.875 1.5 L 117.75 1.5 Z M 119.25 4.5 L 119.25 6.75 L 118.5 6.75 L 118.5 4.5 Z M 119.25 9 L 119.25 11.25 L 118.5 11.25 L 118.5 9 Z M 119.25 13.5 L 119.25 15.75 L 118.5 15.75 L 118.5 13.5 Z M 119.25 18 L 119.25 20.25 L 118.5 20.25 L 118.5 18 Z M 119.25 22.5 L 119.25 24.75 L 118.5 24.75 L 118.5 22.5 Z M 119.25 27 L 119.25 29.25 L 118.5 29.25 L 118.5 27 Z M 119.25 31.5 L 119.25 33.75 L 118.5 33.75 L 118.5 31.5 Z M 119.25 36 L 119.25 38.25 L 118.5 38.25 L 118.5 36 Z M 119.25 40.5 L 119.25 42.75 L 118.5 42.75 L 118.5 40.5 Z M 119.25 45 L 119.25 46.5 L 117.75 46.5 L 117.75 45.75 L 118.875 45.75 L 118.875 46.125 L 118.5 46.125 L 118.5 45 Z M 115.5 46.5 L 113.25 46.5 L 113.25 45.75 L 115.5 45.75 Z M 111 46.5 L 108.75 46.5 L 108.75 45.75 L 111 45.75 Z M 106.5 46.5 L 104.25 46.5 L 104.25 45.75 L 106.5 45.75 Z M 102 46.5 L 99.75 46.5 L 99.75 45.75 L 102 45.75 Z M 97.5 46.5 L 95.25 46.5 L 95.25 45.75 L 97.5 45.75 Z M 93 46.5 L 90.75 46.5 L 90.75 45.75 L 93 45.75 Z M 88.5 46.5 L 86.25 46.5 L 86.25 45.75 L 88.5 45.75 Z M 84 46.5 L 81.75 46.5 L 81.75 45.75 L 84 45.75 Z M 79.5 46.5 L 77.25 46.5 L 77.25 45.75 L 79.5 45.75 Z M 75 46.5 L 72.75 46.5 L 72.75 45.75 L 75 45.75 Z M 70.5 46.5 L 68.25 46.5 L 68.25 45.75 L 70.5 45.75 Z M 66 46.5 L 63.75 46.5 L 63.75 45.75 L 66 45.75 Z M 61.5 46.5 L 59.25 46.5 L 59.25 45.75 L 61.5 45.75 Z M 57 46.5 L 54.75 46.5 L 54.75 45.75 L 57 45.75 Z M 52.5 46.5 L 50.25 46.5 L 50.25 45.75 L 52.5 45.75 Z M 48 46.5 L 45.75 46.5 L 45.75 45.75 L 48 45.75 Z M 43.5 46.5 L 41.25 46.5 L 41.25 45.75 L 43.5 45.75 Z M 39 46.5 L 36.75 46.5 L 36.75 45.75 L 39 45.75 Z M 34.5 46.5 L 32.25 46.5 L 32.25 45.75 L 34.5 45.75 Z M 30 46.5 L 27.75 46.5 L 27.75 45.75 L 30 45.75 Z M 25.5 46.5 L 23.25 46.5 L 23.25 45.75 L 25.5 45.75 Z M 21 46.5 L 18.75 46.5 L 18.75 45.75 L 21 45.75 Z M 16.5 46.5 L 14.25 46.5 L 14.25 45.75 L 16.5 45.75 Z M 12 46.5 L 9.75 46.5 L 9.75 45.75 L 12 45.75 Z M 7.5 46.5 L 5.25 46.5 L 5.25 45.75 L 7.5 45.75 Z M 3 46.5 L 0.75 46.5 L 0.75 45.75 L 3 45.75 Z M 0.375 43.875 L 0.375 41.625 L 1.125 41.625 L 1.125 43.875 Z M 0.375 39.375 L 0.375 37.125 L 1.125 37.125 L 1.125 39.375 Z M 0.375 34.875 L 0.375 32.625 L 1.125 32.625 L 1.125 34.875 Z M 0.375 30.375 L 0.375 28.125 L 1.125 28.125 L 1.125 30.375 Z M 0.375 25.875 L 0.375 23.625 L 1.125 23.625 L 1.125 25.875 Z M 0.375 21.375 L 0.375 19.125 L 1.125 19.125 L 1.125 21.375 Z M 0.375 16.875 L 0.375 14.625 L 1.125 14.625 L 1.125 16.875 Z M 0.375 12.375 L 0.375 10.125 L 1.125 10.125 L 1.125 12.375 Z M 0.375 7.875 L 0.375 5.625 L 1.125 5.625 L 1.125 7.875 Z M 0.375 3.375 L 0.375 0.75 L 3 0.75 L 3 1.5 L 0.75 1.5 L 0.75 1.125 L 1.125 1.125 L 1.125 3.375 Z M 0.375 3.375 "
     id="path12" />
  <path
     fill-rule="nonzero"
     fill="rgb(100%, 100%, 100%)"
     fill-opacity="1"
     d="M 0.75 46.125 L 118.875 46.125 L 118.875 91.125 L 0.75 91.125 Z M 0.75 46.125 "
     id="path14" />
  <path
     fill-rule="nonzero"
     fill="rgb(0%, 0%, 0%)"
     fill-opacity="1"
     d="M 5.25 45.75 L 7.5 45.75 L 7.5 46.5 L 5.25 46.5 Z M 9.75 45.75 L 12 45.75 L 12 46.5 L 9.75 46.5 Z M 14.25 45.75 L 16.5 45.75 L 16.5 46.5 L 14.25 46.5 Z M 18.75 45.75 L 21 45.75 L 21 46.5 L 18.75 46.5 Z M 23.25 45.75 L 25.5 45.75 L 25.5 46.5 L 23.25 46.5 Z M 27.75 45.75 L 30 45.75 L 30 46.5 L 27.75 46.5 Z M 32.25 45.75 L 34.5 45.75 L 34.5 46.5 L 32.25 46.5 Z M 36.75 45.75 L 39 45.75 L 39 46.5 L 36.75 46.5 Z M 41.25 45.75 L 43.5 45.75 L 43.5 46.5 L 41.25 46.5 Z M 45.75 45.75 L 48 45.75 L 48 46.5 L 45.75 46.5 Z M 50.25 45.75 L 52.5 45.75 L 52.5 46.5 L 50.25 46.5 Z M 54.75 45.75 L 57 45.75 L 57 46.5 L 54.75 46.5 Z M 59.25 45.75 L 61.5 45.75 L 61.5 46.5 L 59.25 46.5 Z M 63.75 45.75 L 66 45.75 L 66 46.5 L 63.75 46.5 Z M 68.25 45.75 L 70.5 45.75 L 70.5 46.5 L 68.25 46.5 Z M 72.75 45.75 L 75 45.75 L 75 46.5 L 72.75 46.5 Z M 77.25 45.75 L 79.5 45.75 L 79.5 46.5 L 77.25 46.5 Z M 81.75 45.75 L 84 45.75 L 84 46.5 L 81.75 46.5 Z M 86.25 45.75 L 88.5 45.75 L 88.5 46.5 L 86.25 46.5 Z M 90.75 45.75 L 93 45.75 L 93 46.5 L 90.75 46.5 Z M 95.25 45.75 L 97.5 45.75 L 97.5 46.5 L 95.25 46.5 Z M 99.75 45.75 L 102 45.75 L 102 46.5 L 99.75 46.5 Z M 104.25 45.75 L 106.5 45.75 L 106.5 46.5 L 104.25 46.5 Z M 108.75 45.75 L 111 45.75 L 111 46.5 L 108.75 46.5 Z M 113.25 45.75 L 115.5 45.75 L 115.5 46.5 L 113.25 46.5 Z M 117.75 45.75 L 119.25 45.75 L 119.25 47.25 L 118.5 47.25 L 118.5 46.125 L 118.875 46.125 L 118.875 46.5 L 117.75 46.5 Z M 119.25 49.5 L 119.25 51.75 L 118.5 51.75 L 118.5 49.5 Z M 119.25 54 L 119.25 56.25 L 118.5 56.25 L 118.5 54 Z M 119.25 58.5 L 119.25 60.75 L 118.5 60.75 L 118.5 58.5 Z M 119.25 63 L 119.25 65.25 L 118.5 65.25 L 118.5 63 Z M 119.25 67.5 L 119.25 69.75 L 118.5 69.75 L 118.5 67.5 Z M 119.25 72 L 119.25 74.25 L 118.5 74.25 L 118.5 72 Z M 119.25 76.5 L 119.25 78.75 L 118.5 78.75 L 118.5 76.5 Z M 119.25 81 L 119.25 83.25 L 118.5 83.25 L 118.5 81 Z M 119.25 85.5 L 119.25 87.75 L 118.5 87.75 L 118.5 85.5 Z M 119.25 90 L 119.25 91.5 L 117.75 91.5 L 117.75 90.75 L 118.875 90.75 L 118.875 91.125 L 118.5 91.125 L 118.5 90 Z M 115.5 91.5 L 113.25 91.5 L 113.25 90.75 L 115.5 90.75 Z M 111 91.5 L 108.75 91.5 L 108.75 90.75 L 111 90.75 Z M 106.5 91.5 L 104.25 91.5 L 104.25 90.75 L 106.5 90.75 Z M 102 91.5 L 99.75 91.5 L 99.75 90.75 L 102 90.75 Z M 97.5 91.5 L 95.25 91.5 L 95.25 90.75 L 97.5 90.75 Z M 93 91.5 L 90.75 91.5 L 90.75 90.75 L 93 90.75 Z M 88.5 91.5 L 86.25 91.5 L 86.25 90.75 L 88.5 90.75 Z M 84 91.5 L 81.75 91.5 L 81.75 90.75 L 84 90.75 Z M 79.5 91.5 L 77.25 91.5 L 77.25 90.75 L 79.5 90.75 Z M 75 91.5 L 72.75 91.5 L 72.75 90.75 L 75 90.75 Z M 70.5 91.5 L 68.25 91.5 L 68.25 90.75 L 70.5 90.75 Z M 66 91.5 L 63.75 91.5 L 63.75 90.75 L 66 90.75 Z M 61.5 91.5 L 59.25 91.5 L 59.25 90.75 L 61.5 90.75 Z M 57 91.5 L 54.75 91.5 L 54.75 90.75 L 57 90.75 Z M 52.5 91.5 L 50.25 91.5 L 50.25 90.75 L 52.5 90.75 Z M 48 91.5 L 45.75 91.5 L 45.75 90.75 L 48 90.75 Z M 43.5 91.5 L 41.25 91.5 L 41.25 90.75 L 43.5 90.75 Z M 39 91.5 L 36.75 91.5 L 36.75 90.75 L 39 90.75 Z M 34.5 91.5 L 32.25 91.5 L 32.25 90.75 L 34.5 90.75 Z M 30 91.5 L 27.75 91.5 L 27.75 90.75 L 30 90.75 Z M 25.5 91.5 L 23.25 91.5 L 23.25 90.75 L 25.5 90.75 Z M 21 91.5 L 18.75 91.5 L 18.75 90.75 L 21 90.75 Z M 16.5 91.5 L 14.25 91.5 L 14.25 90.75 L 16.5 90.75 Z M 12 91.5 L 9.75 91.5 L 9.75 90.75 L 12 90.75 Z M 7.5 91.5 L 5.25 91.5 L 5.25 90.75 L 7.5 90.75 Z M 3 91.5 L 0.75 91.5 L 0.75 90.75 L 3 90.75 Z M 0.375 88.875 L 0.375 86.625 L 1.125 86.625 L 1.125 88.875 Z M 0.375 84.375 L 0.375 82.125 L 1.125 82.125 L 1.125 84.375 Z M 0.375 79.875 L 0.375 77.625 L 1.125 77.625 L 1.125 79.875 Z M 0.375 75.375 L 0.375 73.125 L 1.125 73.125 L 1.125 75.375 Z M 0.375 70.875 L 0.375 68.625 L 1.125 68.625 L 1.125 70.875 Z M 0.375 66.375 L 0.375 64.125 L 1.125 64.125 L 1.125 66.375 Z M 0.375 61.875 L 0.375 59.625 L 1.125 59.625 L 1.125 61.875 Z M 0.375 57.375 L 0.375 55.125 L 1.125 55.125 L 1.125 57.375 Z M 0.375 52.875 L 0.375 50.625 L 1.125 50.625 L 1.125 52.875 Z M 0.375 48.375 L 0.375 45.75 L 3 45.75 L 3 46.5 L 0.75 46.5 L 0.75 46.125 L 1.125 46.125 L 1.125 48.375 Z M 0.375 48.375 "
     id="path16" />
  <path
     fill="none"
     stroke-width="1"
     stroke-linecap="butt"
     stroke-linejoin="miter"
     stroke="rgb(0%, 0%, 0%)"
     stroke-opacity="1"
     stroke-miterlimit="10"
     d="M 11.921876 57.062502 C 11.588542 77.72917 16.421876 91.395837 26.421876 98.062504 C 36.421877 104.729171 46.421877 106.395838 56.421877 103.062504 C 66.421878 99.729171 73.088545 94.729171 76.421878 88.062504 C 79.755212 81.395837 81.421878 73.79167 81.421878 65.260419 "
     transform="matrix(0.75, 0, 0, 0.75, 0.375, 0.375)"
     id="path18" />
  <path
     fill-rule="nonzero"
     fill="rgb(0%, 0%, 0%)"
     fill-opacity="1"
     stroke-width="1"
     stroke-linecap="butt"
     stroke-linejoin="miter"
     stroke="rgb(0%, 0%, 0%)"
     stroke-opacity="1"
     stroke-miterlimit="10"
     d="M 81.421878 60.010419 L 84.921879 67.010419 L 81.421878 65.260419 L 77.921878 67.010419 Z M 81.421878 60.010419 "
     transform="matrix(0.75, 0, 0, 0.75, 0.375, 0.375)"
     id="path20" />
  <path
     fill="none"
     stroke-width="1"
     stroke-linecap="butt"
     stroke-linejoin="miter"
     stroke="rgb(0%, 0%, 0%)"
     stroke-opacity="1"
     stroke-miterlimit="10"
     d="M 82.421878 64.890628 C 80.755212 51.557294 83.255212 41.557293 89.921879 34.890626 C 96.588546 28.22396 106.375004 25.057293 119.291672 25.390626 C 132.208339 25.723959 140.541673 29.057293 144.291673 35.390626 C 148.041673 41.72396 149.979173 49.432294 150.088548 58.520836 "
     transform="matrix(0.75, 0, 0, 0.75, 0.375, 0.375)"
     id="path22" />
  <path
     fill-rule="nonzero"
     fill="rgb(0%, 0%, 0%)"
     fill-opacity="1"
     stroke-width="1"
     stroke-linecap="butt"
     stroke-linejoin="miter"
     stroke="rgb(0%, 0%, 0%)"
     stroke-opacity="1"
     stroke-miterlimit="10"
     d="M 150.161465 63.770836 L 146.567714 56.817711 L 150.088548 58.520836 L 153.567715 56.729169 Z M 150.161465 63.770836 "
     transform="matrix(0.75, 0, 0, 0.75, 0.375, 0.375)"
     id="path24" />
  <path
     fill="none"
     stroke-width="1"
     stroke-linecap="butt"
     stroke-linejoin="miter"
     stroke="rgb(0%, 0%, 0%)"
     stroke-opacity="1"
     stroke-miterlimit="10"
     d="M 12.171876 17.890626 L 12.171876 51.520836 "
     transform="matrix(0.75, 0, 0, 0.75, 0.375, 0.375)"
     id="path26" />
  <path
     fill-rule="nonzero"
     fill="rgb(0%, 0%, 0%)"
     fill-opacity="1"
     stroke-width="1"
     stroke-linecap="butt"
     stroke-linejoin="miter"
     stroke="rgb(0%, 0%, 0%)"
     stroke-opacity="1"
     stroke-miterlimit="10"
     d="M 12.171876 56.770836 L 8.671875 49.770835 L 12.171876 51.520836 L 15.671876 49.770835 Z M 12.171876 56.770836 "
     transform="matrix(0.75, 0, 0, 0.75, 0.375, 0.375)"
     id="path28" />
  <path
     fill="none"
     stroke-width="1"
     stroke-linecap="butt"
     stroke-linejoin="miter"
     stroke="rgb(0%, 0%, 0%)"
     stroke-opacity="1"
     stroke-miterlimit="10"
     d="M 150.171881 63.947919 L 150.171881 97.578129 "
     transform="matrix(0.75, 0, 0, 0.75, 0.375, 0.375)"
     id="path30" />
  <path
     fill-rule="nonzero"
     fill="rgb(0%, 0%, 0%)"
     fill-opacity="1"
     stroke-width="1"
     stroke-linecap="butt"
     stroke-linejoin="miter"
     stroke="rgb(0%, 0%, 0%)"
     stroke-opacity="1"
     stroke-miterlimit="10"
     d="M 150.171881 102.828129 L 146.671881 95.828129 L 150.171881 97.578129 L 153.671881 95.828129 Z M 150.171881 102.828129 "
     transform="matrix(0.75, 0, 0, 0.75, 0.375, 0.375)"
     id="path32" />
  <g
     clip-path="url(#clip-0)"
     id="g36">
    <path
       fill="none"
       stroke-width="1"
       stroke-linecap="butt"
       stroke-linejoin="miter"
       stroke="#000000"
       stroke-opacity="1"
       stroke-miterlimit="10"
       d="m 210.50001,18.062501 -1.15104,73.625003"
       transform="matrix(0.75,0,0,0.75,0.375,0.375)"
       id="path34" />
  </g>
  <path
     fill-rule="nonzero"
     fill="rgb(0%, 0%, 0%)"
     fill-opacity="1"
     d="M 157.328125 73.078125 L 154.785156 67.792969 L 157.386719 69.140625 L 160.035156 67.875 Z M 157.328125 73.078125 "
     id="path38" />
  <g
     clip-path="url(#clip-1)"
     id="g42">
    <path
       fill="none"
       stroke-width="1"
       stroke-linecap="butt"
       stroke-linejoin="miter"
       stroke="#000000"
       stroke-opacity="1"
       stroke-miterlimit="10"
       d="m 209.27084,96.937504 -3.39062,-7.046875 3.46875,1.796875 3.53125,-1.6875 z m 0,0"
       transform="matrix(0.75,0,0,0.75,0.375,0.375)"
       id="path40" />
  </g>
</svg>
